<?xml version="1.0" encoding="UTF-8"?>
<svg id="_圖層_1" xmlns="http://www.w3.org/2000/svg" version="1.1" viewBox="0 0 341.25 55.88">
  <!-- Generator: Adobe Illustrator 29.6.0, SVG Export Plug-In . SVG Version: 2.1.1 Build 207)  -->
  <defs>
    <style>
      .st0 {
        fill: #fff;
      }
    </style>
  </defs>
  <g>
    <path class="st0" d="M32.52,55.43h-7v-6.44c-19.87,7.15-28.1-11.6-15.69-25.78-2.97,7.85-5.66,22.63,7.14,21.85,10.68-.65,22.38-10.68,28.22-19.13,4.49-6.49,9.19-16.52,2.46-23.17,8.86,3.75,6.5,15.75,3.32,22.79-3.73,8.25-10.8,15.52-18.45,20.21v9.67Z"/>
    <path class="st0" d="M48.49,7.24v6.58l-.42.42h-15.55v22.28c-2.14,1.44-4.51,3.17-7,3.78V14.25h-15.55l-.42-.42v-6.58h38.95Z"/>
    <path class="st0" d="M19.35,54.04c-.13.44-1.12.71-1.53.85C8.11,58.21-.3,51.36.3,41.29c.16-2.66,1.06-5.97,2.38-8.27-.79,5.33-1.66,11.92,2.11,16.38,3.49,4.13,9.62,4.17,14.56,4.63Z"/>
    <path class="st0" d="M56.05,10.46c-.42-3.69-2.7-7.67-5.6-9.94,6.71,1.29,8.41,10.77,6.23,16.19-.17.43.17.76-.63.62-.18-2.19.24-4.72,0-6.86Z"/>
  </g>
  <g>
    <path class="st0" d="M91.38,23.91h-7.76v22.21h-6.14v-22.21h-7.72v-4.99h21.62v4.99Z"/>
    <path class="st0" d="M108.09,46.59c-3.89,0-7.07-1.27-9.52-3.8-2.45-2.53-3.68-5.84-3.68-9.91,0-4.3,1.24-7.77,3.74-10.43,2.49-2.66,5.79-3.98,9.9-3.98,3.88,0,7.02,1.27,9.42,3.81,2.4,2.54,3.59,5.89,3.59,10.05s-1.24,7.72-3.73,10.34c-2.48,2.62-5.72,3.93-9.72,3.93ZM108.35,23.74c-2.15,0-3.86.81-5.12,2.42-1.26,1.61-1.9,3.75-1.9,6.4s.63,4.82,1.9,6.39c1.26,1.57,2.92,2.35,4.97,2.35s3.79-.76,5.03-2.29c1.24-1.52,1.86-3.64,1.86-6.34s-.6-5.01-1.8-6.58-2.84-2.35-4.93-2.35Z"/>
    <path class="st0" d="M150.2,46.12h-7.74l-7.93-11.81c-.15-.23-.39-.73-.72-1.5h-.1v13.31h-6.13v-27.19h6.13v12.86h.1c.15-.35.4-.86.76-1.52l7.51-11.34h7.3l-9.48,12.97,10.3,14.22Z"/>
    <path class="st0" d="M174.85,18.92l-8.86,17.52v9.67h-6.13v-9.56l-8.63-17.64h7l4.38,10.15c.08.19.28.93.63,2.22h.08c.16-.91.36-1.62.59-2.14l4.46-10.22h6.49Z"/>
    <path class="st0" d="M190.97,46.59c-3.89,0-7.07-1.27-9.52-3.8-2.45-2.53-3.68-5.84-3.68-9.91,0-4.3,1.24-7.77,3.74-10.43,2.49-2.66,5.79-3.98,9.9-3.98,3.88,0,7.02,1.27,9.42,3.81,2.4,2.54,3.59,5.89,3.59,10.05s-1.24,7.72-3.73,10.34c-2.48,2.62-5.72,3.93-9.72,3.93ZM191.24,23.74c-2.15,0-3.86.81-5.12,2.42-1.27,1.61-1.9,3.75-1.9,6.4s.63,4.82,1.9,6.39c1.26,1.57,2.92,2.35,4.97,2.35s3.79-.76,5.03-2.29c1.24-1.52,1.86-3.64,1.86-6.34s-.6-5.01-1.8-6.58c-1.2-1.57-2.84-2.35-4.93-2.35Z"/>
    <path class="st0" d="M241.85,23.91h-7.76v22.21h-6.14v-22.21h-7.72v-4.99h21.62v4.99Z"/>
    <path class="st0" d="M269.87,46.12h-7.04l-4.23-7c-.32-.53-.62-1.01-.91-1.42-.29-.42-.58-.77-.88-1.07-.3-.3-.61-.52-.93-.68s-.67-.24-1.05-.24h-1.65v10.41h-6.13v-27.19h9.71c6.6,0,9.9,2.47,9.9,7.4,0,.95-.15,1.82-.44,2.63-.29.8-.7,1.53-1.23,2.17-.53.64-1.17,1.2-1.93,1.67s-1.59.83-2.51,1.1v.08c.4.13.8.33,1.18.62.38.28.75.62,1.1,1,.35.38.69.79,1.01,1.22.32.44.62.86.88,1.28l5.14,8.04ZM253.19,23.51v7.57h2.65c1.32,0,2.37-.38,3.17-1.14.81-.77,1.21-1.73,1.21-2.86,0-2.38-1.42-3.57-4.27-3.57h-2.77Z"/>
    <path class="st0" d="M297.88,46.12h-6.67l-1.94-6.05h-9.67l-1.92,6.05h-6.64l9.9-27.19h7.26l9.67,27.19ZM287.87,35.37l-2.92-9.14c-.22-.68-.37-1.5-.46-2.45h-.15c-.06.8-.22,1.59-.47,2.37l-2.96,9.22h6.96Z"/>
    <path class="st0" d="M319.14,46.12h-16.31v-27.19h15.68v4.99h-9.56v6.05h8.89v4.97h-8.89v6.22h10.18v4.97Z"/>
    <path class="st0" d="M341.25,46.12h-16.19v-27.19h6.13v22.23h10.07v4.97Z"/>
  </g>
</svg>